<?xml version="1.0" ?><!DOCTYPE svg  PUBLIC '-//W3C//DTD SVG 1.1//EN'  'http://www.w3.org/Graphics/SVG/1.1/DTD/svg11.dtd'><svg enable-background="new 0 0 512 512" height="512px" id="Layer_1" version="1.1" viewBox="0 0 512 512" width="512px" xml:space="preserve" xmlns="http://www.w3.org/2000/svg" xmlns:xlink="http://www.w3.org/1999/xlink"><path d="M492.271,442.804c0,34.171-27.701,61.872-61.873,61.872H80.655c-34.171,0-61.873-27.701-61.873-61.872V93.06  c0-34.172,27.702-61.873,61.873-61.873h349.743c34.172,0,61.873,27.701,61.873,61.873V442.804z" fill="#046987"/><path d="M492.271,418.06c0,34.172-27.701,61.872-61.873,61.872H80.655c-34.171,0-61.873-27.7-61.873-61.872V68.315  c0-34.171,27.702-61.872,61.873-61.872h349.743c34.172,0,61.873,27.701,61.873,61.872V418.06z" fill="#01B7EE"/><path d="M492.271,418.06V268.941c-12.289-12.285-24.596-24.55-36.858-36.862  c-15.383-15.443-30.856-30.796-46.239-46.239c-15.372-15.433-30.843-30.77-46.209-46.21c-13.516-13.578-29.631-24.53-47.254-32.051  c-18.266-7.795-38.049-11.832-57.904-11.912c-5.935-0.024-11.872,0.302-17.77,0.974c-1.403,0.159-2.802,0.338-4.2,0.537  c-0.696,0.099-1.391,0.203-2.085,0.311c-0.646,0.102-1.779,0.522-2.335,0.176c-2.178-1.354-4.416-2.613-6.705-3.772  c-9.353-4.734-19.551-7.752-29.977-8.849c-17.385-1.829-35.159,1.675-50.506,10.053c-14.244,7.776-26.181,19.575-34.121,33.729  c-8.517,15.182-12.227,32.818-10.65,50.147c0.961,10.555,3.891,20.9,8.594,30.396c0.553,1.117,1.13,2.221,1.73,3.313  c0.299,0.545,0.604,1.086,0.916,1.625c0.212,0.368,0.33,0.449,0.244,0.88c-0.092,0.456-0.182,0.913-0.27,1.37  c-0.552,2.876-1.018,5.768-1.399,8.671c-0.776,5.905-1.198,11.856-1.27,17.812c-0.239,19.98,3.523,39.954,11.117,58.443  c7.282,17.729,18.021,33.996,31.425,47.694c7.542,7.71,15.222,15.3,22.881,22.892c7.671,7.74,15.381,15.449,23.12,23.12  c15.343,15.479,30.76,30.896,46.239,46.239c12.771,12.884,25.603,25.713,38.47,38.504h149.143  C464.57,479.932,492.271,452.231,492.271,418.06z" fill="#1283A5"/><g><g><path d="M402.951,276.887c2.223-10.316,3.462-21.042,3.462-32.024c0-82.411-66.819-149.196-149.223-149.196    c-8.702,0-17.235,0.752-25.513,2.162c-13.355-8.369-29.129-13.26-46.051-13.26c-47.771,0-86.525,38.737-86.525,86.504    c0,15.989,4.359,30.915,11.911,43.772c-1.975,9.684-3.018,19.73-3.018,30.006c0,82.39,66.788,149.191,149.197,149.191    c9.327,0,18.46-0.88,27.333-2.491c12.169,6.535,26.107,10.259,40.9,10.259c47.771,0,86.531-38.736,86.531-86.518    C411.955,301.508,408.68,288.461,402.951,276.887z M333.703,316.184c-6.893,9.758-17.086,17.51-30.314,23.002    c-13.078,5.434-28.781,8.186-46.606,8.186c-21.431,0-39.394-3.779-53.424-11.203c-10.014-5.426-18.285-12.743-24.563-21.803    c-6.349-9.133-9.553-18.201-9.553-26.973c0-5.459,2.123-10.172,6.233-14.074c4.085-3.84,9.339-5.8,15.572-5.8    c5.139,0,9.557,1.546,13.16,4.575c3.441,2.931,6.354,7.219,8.749,12.783c2.657,6.051,5.515,11.189,8.56,15.2    c2.931,3.881,7.14,7.111,12.537,9.668c5.384,2.573,12.688,3.868,21.665,3.868c12.353,0,22.439-2.655,30.048-7.838    c7.433-5.064,11.024-11.156,11.024-18.612c0-5.89-1.847-10.522-5.76-14.148c-4.027-3.794-9.41-6.749-15.932-8.788    c-6.754-2.133-15.99-4.398-27.361-6.799c-15.488-3.288-28.648-7.227-39.113-11.686c-10.679-4.559-19.307-10.855-25.614-18.763    c-6.41-8.024-9.64-18.066-9.64-29.888c0-11.283,3.405-21.418,10.131-30.208c6.667-8.697,16.422-15.472,28.946-20.084    c12.413-4.595,27.135-6.93,43.79-6.93c13.336,0,25.02,1.545,34.81,4.604c9.841,3.075,18.142,7.201,24.646,12.298    c6.556,5.122,11.46,10.605,14.507,16.294c3.107,5.788,4.646,11.484,4.646,17.025c0,5.328-2.05,10.177-6.119,14.391    c-4.065,4.246-9.239,6.437-15.312,6.437c-5.511,0-9.844-1.356-12.828-4.012c-2.815-2.47-5.734-6.334-8.935-11.85    c-3.696-7.058-8.197-12.61-13.368-16.565c-5.02-3.822-13.391-5.759-24.9-5.759c-10.7,0-19.39,2.15-25.863,6.392    c-6.225,4.07-9.237,8.764-9.237,14.301c0,3.391,0.951,6.264,2.973,8.689c2.105,2.586,5.107,4.847,8.888,6.754    c3.94,1.981,7.962,3.534,12.004,4.648c4.142,1.139,11.112,2.841,20.627,5.064c12.08,2.582,23.174,5.487,32.99,8.62    c9.931,3.189,18.526,7.099,25.514,11.657c7.146,4.662,12.818,10.655,16.844,17.749c3.996,7.178,6.042,16.023,6.042,26.299    C344.139,295.17,340.633,306.367,333.703,316.184z" fill="#FFFFFF"/></g></g></svg>